<?xml version="1.0" encoding="UTF-8"?> <svg xmlns="http://www.w3.org/2000/svg" viewBox="0 0 128 12"> <defs> <style>.cls-1{fill:#fff;}</style> </defs> <g id="Слой_2" data-name="Слой 2"> <g id="Слой_1-2" data-name="Слой 1"> <path class="cls-1" d="M4.08,0H8l4,11.86H9.33L8.56,9.51H3.46l-.79,2.35H0ZM7.8,7.2,6,1.76,4.22,7.2Z"></path> <path class="cls-1" d="M13.44,11.86V0H16V11.86Z"></path> <path class="cls-1" d="M22.47,0h9.74V2.37H28.7v9.49H26.12V2.37H22.47Z"></path> <path class="cls-1" d="M35.91,0h3.91l4,11.86H41.16l-.77-2.35h-5.1l-.78,2.35H31.83Zm3.72,7.2L37.87,1.76,36.05,7.2Z"></path> <path class="cls-1" d="M45.1,11.86V0h2.57V9.51h5.85v2.35Z"></path> <path class="cls-1" d="M63.67,0V2.36H57.55V4.78H63v2.3H57.55V9.51h6.12v2.35H55V0Z"></path> <path class="cls-1" d="M69.73,0l4,9.42V0h2.52V11.86h-4L68.14,2.14v9.72H65.61V0Z"></path> <path class="cls-1" d="M77.88,0h9.74V2.37H84.1v9.49H81.53V2.37H77.88Z"></path> <path class="cls-1" d="M96.45,0V4.78h5.38V0h2.58V11.86h-2.58V7.07H96.45v4.79H93.88V0Z"></path> <path class="cls-1" d="M106.2,0h2.59V7.07a2.44,2.44,0,0,0,.74,1.81,2.45,2.45,0,0,0,3.49,0,2.39,2.39,0,0,0,.76-1.81V0h2.57V7.07a4.69,4.69,0,0,1-1.46,3.52A5,5,0,0,1,111.28,12a5.06,5.06,0,0,1-3.62-1.39,4.73,4.73,0,0,1-1.46-3.54Z"></path> <path class="cls-1" d="M123.73,0a4,4,0,0,1,2.73.92,2.87,2.87,0,0,1,1,2.25,3.11,3.11,0,0,1-.4,1.52,2.92,2.92,0,0,1-1,1.12A3.16,3.16,0,0,1,127.52,7,3.06,3.06,0,0,1,128,8.68,2.92,2.92,0,0,1,127,11a4.12,4.12,0,0,1-2.79.89h-6V0Zm-3.09,7v2.6H124a1.34,1.34,0,0,0,1-.38,1.22,1.22,0,0,0,.4-.91,1.24,1.24,0,0,0-.4-.92A1.31,1.31,0,0,0,124,7Zm0-4.69V4.93h3a1.31,1.31,0,0,0,1-.39,1.3,1.3,0,0,0,0-1.86,1.31,1.31,0,0,0-1-.39Z"></path> </g> </g> </svg> 