<?xml version="1.0" encoding="UTF-8"?>
<svg xmlns="http://www.w3.org/2000/svg" xmlns:xlink="http://www.w3.org/1999/xlink" viewBox="0 0 50 50" width="50px" height="50px">
<g id="surface190400946">
<path style=" stroke:none;fill-rule:nonzero;fill:rgb(100%,100%,100%);fill-opacity:1;" d="M 25 2 C 12.308594 2 2 12.308594 2 25 C 2 37.691406 12.308594 48 25 48 C 37.691406 48 48 37.691406 48 25 C 48 12.308594 37.691406 2 25 2 Z M 25 4 C 36.609375 4 46 13.390625 46 25 C 46 36.609375 36.609375 46 25 46 C 13.390625 46 4 36.609375 4 25 C 4 13.390625 13.390625 4 25 4 Z M 34.089844 14.035156 C 33.402344 14.035156 32.636719 14.195312 31.738281 14.519531 C 30.339844 15.019531 13.921875 21.992188 12.054688 22.785156 C 10.984375 23.238281 8.996094 24.082031 8.996094 26.097656 C 8.996094 27.433594 9.777344 28.386719 11.320312 28.9375 C 12.144531 29.234375 14.113281 29.828125 15.253906 30.144531 C 15.738281 30.277344 16.253906 30.34375 16.78125 30.34375 C 17.816406 30.34375 18.859375 30.085938 19.675781 29.628906 C 19.667969 29.800781 19.671875 29.96875 19.691406 30.136719 C 19.8125 31.1875 20.460938 32.175781 21.421875 32.78125 C 22.050781 33.175781 27.179688 36.613281 27.945312 37.160156 C 29.019531 37.929688 30.210938 38.335938 31.382812 38.335938 C 33.621094 38.335938 34.375 36.023438 34.738281 34.914062 C 35.261719 33.300781 37.226562 20.183594 37.449219 17.871094 C 37.601562 16.285156 36.941406 14.980469 35.683594 14.378906 C 35.210938 14.148438 34.671875 14.035156 34.089844 14.035156 Z M 34.089844 16.035156 C 34.363281 16.035156 34.609375 16.082031 34.816406 16.183594 C 35.289062 16.410156 35.53125 16.914062 35.457031 17.679688 C 35.214844 20.203125 33.253906 33.007812 32.835938 34.292969 C 32.476562 35.390625 32.101562 36.335938 31.382812 36.335938 C 30.664062 36.335938 29.878906 36.085938 29.109375 35.53125 C 28.335938 34.980469 23.203125 31.535156 22.488281 31.089844 C 21.863281 30.695312 21.203125 29.710938 22.132812 28.761719 C 22.898438 27.980469 28.71875 22.332031 29.214844 21.835938 C 29.585938 21.464844 29.410156 21.019531 29.050781 21.019531 C 28.925781 21.019531 28.773438 21.070312 28.621094 21.199219 C 28.011719 21.695312 19.535156 27.367188 18.800781 27.824219 C 18.316406 28.125 17.5625 28.34375 16.78125 28.34375 C 16.449219 28.34375 16.109375 28.300781 15.785156 28.214844 C 14.660156 27.902344 12.75 27.324219 11.992188 27.054688 C 11.261719 26.792969 10.996094 26.542969 10.996094 26.097656 C 10.996094 25.464844 11.894531 25.027344 12.835938 24.625 C 13.832031 24.203125 31.066406 16.882812 32.414062 16.398438 C 33.039062 16.171875 33.609375 16.035156 34.085938 16.035156 Z M 34.089844 16.035156 "/>
</g>
</svg>
